HIERARCHY
ROOT Hips
{
	OFFSET 0.000000 0.000000 0.000000 
	CHANNELS 6 Xposition Yposition Zposition Zrotation Yrotation Xrotation
	JOINT LeftUpLeg
	{
		OFFSET 1.363060 -1.794630 0.839290 
		CHANNELS 3 Zrotation Yrotation Xrotation
		JOINT LeftLeg
		{
			OFFSET 2.448110 -6.726130 0.000000 
			CHANNELS 3 Zrotation Yrotation Xrotation
			JOINT LeftFoot
			{
				OFFSET 2.562200 -7.039590 0.000000 
				CHANNELS 3 Zrotation Yrotation Xrotation
				JOINT LeftToeBase
				{
					OFFSET 0.157640 -0.433110 2.322550 
					CHANNELS 3 Zrotation Yrotation Xrotation
					End Site
					{
						OFFSET 0.000000 0.000000 0.000000 
					}
				}
			}
		}
	}
	JOINT RightUpLeg
	{
		OFFSET -1.305520 -1.794630 0.839290 
		CHANNELS 3 Zrotation Yrotation Xrotation
		JOINT RightLeg
		{
			OFFSET -2.542530 -6.985550 0.000000 
			CHANNELS 3 Zrotation Yrotation Xrotation
			JOINT RightFoot
			{
				OFFSET -2.568260 -7.056230 0.000000 
				CHANNELS 3 Zrotation Yrotation Xrotation
				JOINT RightToeBase
				{
					OFFSET -0.164730 -0.452590 2.363150 
					CHANNELS 3 Zrotation Yrotation Xrotation
					End Site
					{
						OFFSET 0.000000 0.000000 0.000000 
					}
				}
			}
		}
	}
	JOINT Spine
	{
		OFFSET 0.028270 2.035590 -0.193380 
		CHANNELS 3 Zrotation Yrotation Xrotation
		JOINT Spine1
		{
			OFFSET 0.056720 2.048850 -0.042750 
			CHANNELS 3 Zrotation Yrotation Xrotation
			JOINT Neck1
			{
				OFFSET -0.054170 1.746240 0.172020 
				CHANNELS 3 Zrotation Yrotation Xrotation
				JOINT Head
				{
					OFFSET 0.104070 1.761360 -0.123970 
					CHANNELS 3 Zrotation Yrotation Xrotation
					End Site
					{
						OFFSET 0.000000 0.000000 0.000000 
					}
				}
			}
			JOINT LeftArm
			{
				OFFSET 3.362410 1.200890 -0.311210 
				CHANNELS 3 Zrotation Yrotation Xrotation
				JOINT LeftForeArm
				{
					OFFSET 4.983000 -0.000000 -0.000000 
					CHANNELS 3 Zrotation Yrotation Xrotation
					JOINT LeftHand
					{
						OFFSET 3.483560 -0.000000 -0.000000 
						CHANNELS 3 Zrotation Yrotation Xrotation
						JOINT LeftHandIndex1
						{
							OFFSET 0.715260 -0.000000 -0.000000 
							CHANNELS 3 Zrotation Yrotation Xrotation
							End Site
							{
								OFFSET 0.000000 0.000000 0.000000 
							}
						}
					}
				}
			}
			JOINT RightArm
			{
				OFFSET -3.136600 1.374050 -0.404650 
				CHANNELS 3 Zrotation Yrotation Xrotation
				JOINT RightForeArm
				{
					OFFSET -5.241900 -0.000000 -0.000000 
					CHANNELS 3 Zrotation Yrotation Xrotation
					JOINT RightHand
					{
						OFFSET -3.444170 -0.000000 -0.000000 
						CHANNELS 3 Zrotation Yrotation Xrotation
						JOINT RightHandIndex1
						{
							OFFSET -0.622530 -0.000000 -0.000000 
							CHANNELS 3 Zrotation Yrotation Xrotation
							End Site
							{
								OFFSET 0.000000 0.000000 0.000000 
							}
						}
					}
				}
			}
		}
	}
}
MOTION
Frames: 6
Frame Time: 0.041667
-1.530294 17.594721 -0.765975 -2.664581 10.530154 14.454145 -10.138605 -21.538376 -22.744664 0.657228 7.309624 21.371213 -0.593539 5.138285 -5.307327 1.524500 -7.796100 -22.096500 36.434811 5.600347 -21.557528 -1.751529 -6.940038 22.628671 1.686352 -17.020724 -18.133259 -0.001600 0.261000 -0.717200 0.366522 2.110276 1.354532 0.976659 1.181692 1.115920 4.845367 -6.126491 5.351257 2.617800 -2.995800 2.666400 -68.654535 26.670404 67.539663 80.339828 -58.297803 -50.569507 -0.656864 1.627228 -54.629180 -7.125000 0.000000 0.000000 53.897604 -23.636569 22.820585 -145.944572 39.795852 -106.653993 0.332218 -0.397322 -58.429799 7.125000 0.000000 0.000000 
-1.575895 17.579423 -0.777278 -2.770040 11.081426 14.424951 -9.768213 -21.732497 -23.156577 0.702657 7.437704 21.675129 -0.539360 4.825285 -5.134390 1.566000 -7.896700 -22.400600 36.705559 5.533013 -21.765320 -1.778815 -7.030555 22.885843 1.614175 -16.903358 -18.679487 -0.001100 -0.213800 0.587300 0.341113 2.110843 1.350745 0.951904 1.184390 1.091760 5.047646 -6.001119 5.441535 2.729500 -2.930000 2.703100 -68.686366 26.839610 67.417791 80.031193 -58.277353 -50.285414 -0.636945 1.627801 -53.955753 -7.125000 0.000000 0.000000 52.018634 -22.844394 19.681907 -147.332300 38.759233 -107.617296 0.364679 -0.379407 -59.709660 7.125000 0.000000 0.000000 
-1.620913 17.563443 -0.790335 -2.843790 11.640020 14.442106 -9.421098 -21.992424 -23.538966 0.733982 7.530321 21.882147 -0.508101 4.645004 -5.002377 1.637300 -8.065900 -22.914400 36.926955 5.604627 -22.047223 -1.815421 -7.150146 23.210731 1.579342 -16.956135 -19.172548 -0.005300 -0.469300 1.289500 0.276437 2.131769 1.320499 0.811893 1.202870 1.033016 5.261525 -5.926224 5.562820 2.838200 -2.888600 2.758600 -68.441829 26.995025 67.515825 79.886444 -58.266831 -50.143978 -0.621271 1.618390 -53.369382 -7.125000 0.000000 0.000000 50.274954 -22.019704 16.202902 -148.570285 37.789040 -108.460065 0.390635 -0.363080 -61.248497 7.125000 0.000000 0.000000 
-1.661837 17.550289 -0.799592 -2.883149 12.126321 14.364246 -9.172900 -22.244444 -23.753230 0.766553 7.614030 22.092361 -0.477860 4.481634 -5.000004 1.708600 -8.230800 -23.417400 37.128740 5.395996 -22.289446 -1.858787 -7.263230 23.534269 1.551106 -16.931812 -19.410140 -0.007100 -0.543100 1.492500 0.206346 2.173954 1.299435 0.661196 1.230895 0.967016 5.378511 -5.853006 5.685855 2.876000 -2.849500 2.788100 -68.223184 27.115240 67.565318 79.592328 -58.245789 -49.866141 -0.602075 1.604162 -52.896079 -7.125000 0.000000 0.000000 48.467042 -21.210266 12.595640 -149.665955 36.896243 -109.192028 0.410004 -0.344118 -62.885942 7.125000 0.000000 0.000000 
-1.701593 17.539083 -0.803782 -2.911825 12.536710 14.159337 -9.012041 -22.356825 -23.790088 0.793358 7.674038 22.259898 -0.435507 4.238228 -4.991739 1.707300 -8.227800 -23.408100 37.331978 5.074664 -22.419729 -1.911371 -7.380368 23.890801 1.558587 -17.013783 -19.502781 -0.003800 -0.397400 1.091900 0.141626 2.230805 1.312223 0.536912 1.262554 0.936563 5.460329 -5.712116 5.727460 2.890300 -2.776400 2.755300 -68.056675 27.201083 67.528874 79.383044 -58.231121 -49.665029 -0.579628 1.599560 -52.550216 -7.125000 0.000000 0.000000 46.508009 -20.266419 8.785936 -150.517525 36.199426 -109.743301 0.424277 -0.318840 -64.563328 7.125000 0.000000 0.000000 
-1.740082 17.527001 -0.807484 -2.953484 12.981054 13.985957 -8.833291 -22.443713 -23.858054 0.812151 7.717505 22.374277 -0.391427 3.971706 -4.910232 1.720100 -8.257100 -23.497600 37.549694 4.805691 -22.557744 -1.961721 -7.495515 24.238980 1.570861 -17.141552 -19.645453 -0.002300 -0.310300 0.852700 0.090460 2.244107 1.300161 0.423711 1.275952 0.873271 5.611509 -5.536157 5.696826 2.969000 -2.686900 2.671500 -68.021088 27.353389 67.330423 79.192870 -58.218664 -49.483169 -0.553398 1.594351 -52.070012 -7.125000 0.000000 0.000000 44.385710 -19.238833 4.900694 -151.210272 35.629947 -110.189184 0.428100 -0.294774 -66.333035 7.125000 0.000000 0.000000 
